<?xml version="1.0" encoding="utf-8"?>
<!-- Generator: Adobe Illustrator 16.0.0, SVG Export Plug-In . SVG Version: 6.00 Build 0)  -->
<!DOCTYPE svg PUBLIC "-//W3C//DTD SVG 1.1//EN" "http://www.w3.org/Graphics/SVG/1.1/DTD/svg11.dtd">
<svg version="1.1" id="레이어_1" xmlns="http://www.w3.org/2000/svg" xmlns:xlink="http://www.w3.org/1999/xlink" x="0px"
	 y="0px" width="560px" height="560px" viewBox="0 0 560 560" enable-background="new 0 0 560 560" xml:space="preserve">
<g>
	<defs>
		<rect id="SVGID_1_" x="30.23" y="1.151" width="502.336" height="558.849"/>
	</defs>
	<clipPath id="SVGID_2_">
		<use xlink:href="#SVGID_1_"  overflow="visible"/>
	</clipPath>
	<polygon clip-path="url(#SVGID_2_)" fill="#9BA0B4" points="30.23,1.151 30.23,352.786 210.757,352.787 281.398,252.319 
		352.039,352.787 532.566,352.787 532.566,1.151 	"/>
	<polygon clip-path="url(#SVGID_2_)" fill="#282832" points="322.212,396.739 275.118,463.721 228.024,396.739 184.069,396.739 
		256.28,499.438 256.28,560 293.956,560 293.956,499.438 366.167,396.739 	"/>
	<path clip-path="url(#SVGID_2_)" fill="#282832" d="M153.431,475.104c13.291-6.998,21.689-19.592,21.689-35.917
		c0-25.421-20.991-42.448-61.808-42.448H30.229V560h87.75c42.913,0,65.304-16.327,65.304-44.547
		C183.283,494.927,171.622,480.934,153.431,475.104 M67.903,425.192h40.749c18.422,0,28.449,6.298,28.449,19.123
		c0,12.832-10.026,19.359-28.449,19.359H67.903V425.192z M115.18,531.546H67.903v-40.348h47.277
		c19.593,0,30.086,6.531,30.086,20.291C145.266,525.482,134.773,531.546,115.18,531.546"/>
	<polygon clip-path="url(#SVGID_2_)" fill="#282832" points="494.89,396.739 494.89,499.308 425.915,396.739 385.101,396.739 
		385.101,560 422.775,560 422.775,457.434 491.751,560 532.566,560 532.566,396.739 	"/>
</g>
</svg>
